<svg width="42" height="42" viewBox="0 0 42 42" fill="none" xmlns="http://www.w3.org/2000/svg">
<g clip-path="url(#clip0_4670_8451)">
<path d="M12.1823 38.0563C12.2113 29.852 12.3274 12.8102 12.3274 9.41338C12.3274 9.03915 12.3274 8.31948 12.3274 8.31948C12.3274 8.31948 12.3564 6.04532 9.89091 5.93018L27.2942 5.98775V6.01654H28.4254C28.4254 6.01654 32.7763 6.21804 33.5884 10.5936C34.4006 14.9692 33.2113 20.2372 29.0346 20.41C24.8578 20.5827 16.4171 20.7554 16.4171 20.7554C16.4171 20.7554 16.4171 30.9172 16.4462 37.9124C16.4462 37.9411 16.4462 37.9699 16.4462 37.9699C16.4462 39.0926 16.5042 40.0138 16.5042 40.1002C16.5042 40.7335 17.1423 41.6259 19.5788 41.7986C21.7542 41.9425 10.9351 41.8849 8.7887 41.8849C9.65886 41.8562 11.9503 41.3956 12.1823 38.0563ZM27.2362 7.57103L16.4171 7.48467L16.5042 19.2009C16.5042 19.2009 23.2044 19.2585 26.4531 18.913C29.7017 18.5676 29.2956 13.1845 29.0926 10.7952C28.8895 8.37706 27.3522 7.6286 27.3522 7.6286H27.2652V7.57103H27.2362Z" fill="#C6C5C3"/>
<path d="M31.0939 35.8398C31.2679 37.711 31.732 39.2655 33.4144 40.3594C35.7638 41.3669 36.663 41.5396 36.663 41.5396C36.663 41.5396 32.7762 41.7987 31.326 41.5396C29.8757 41.2805 26.8011 41.626 26.7141 37.9413C26.7141 37.3943 26.7431 36.6746 26.7431 35.811" fill="#C6C5C3"/>
<path d="M26.7431 36.0123C26.7721 31.3488 26.7431 26.1384 26.192 24.7854C25.3508 22.6552 24.6257 21.8204 22.1312 21.1583C19.2886 20.4098 16.4461 20.784 16.4461 20.784L23.9875 20.6113C23.9875 20.6113 27.9613 21.6477 28.9765 23.49C30.1367 25.5915 31.1519 27.2035 31.2389 32.2412C31.2679 33.479 31.1519 34.7457 31.0649 35.9547" fill="#C6C5C3"/>
<path d="M26.453 27.0306C25.2058 28.4124 23.9005 30.3123 23.4074 32.6153C22.9144 34.8894 22.4793 36.0409 22.4793 36.0409L22.1022 37.0484L22.0152 37.8545L21.8992 39.7256L21.4641 40.7907C21.4641 40.7907 20.6519 39.9559 21.203 37.3939C21.7541 34.8606 22.9144 31.8956 22.9144 31.8956C22.9144 31.8956 22.9434 31.2911 22.8273 31.2623C22.7113 31.2335 22.3923 30.6578 22.3923 30.6578L22.3052 30.2835L21.7831 30.2548L21.232 29.9957C21.232 29.9957 21.145 29.6214 21.029 29.6214C20.913 29.6214 20.7389 29.276 20.7389 29.276L20.4489 28.9018L20.2458 28.47C20.2458 28.47 20.4199 28.0094 20.2749 28.0094C20.1298 28.0094 20.1588 27.7215 20.1588 27.7215L20.2458 27.2033L20.2168 26.311L20.1878 25.5625L20.2749 24.8716V24.2671L20.7389 24.958L21.3481 25.1595L21.5221 25.4186L21.8121 25.764L22.2762 26.3685L22.2472 26.7428L22.6823 26.9155L22.9724 27.2033L23.3204 27.7215L23.4074 28.9881L23.3204 29.8229L22.9724 30.1684C22.9724 30.1684 23.2044 31.435 23.3204 31.435C23.4365 31.4638 23.4074 30.9744 23.9295 29.7942C24.4516 28.6139 25.2928 27.6639 26.511 26.167" fill="#C6C5C3"/>
<path d="M29.3246 24.0081L29.3536 23.9793L29.9917 23.1445C29.9917 23.1445 31.9641 21.2733 32.6312 20.7264C33.3273 20.1794 33.9945 19.834 33.9945 19.834L34.1975 19.9203L34.1685 20.2658C34.1685 20.2658 31.0069 22.7702 30.4268 23.5187C30.3108 23.6914 30.0207 24.0369 29.6727 24.5262" fill="#C6C5C3"/>
<path d="M22.1312 37.3077C22.3053 37.3077 22.5953 37.3077 22.7403 37.2213C22.8564 37.135 23.0304 36.9335 23.4365 36.9622C23.8426 36.991 24.1326 37.3365 24.1326 37.3365C24.1326 37.3365 24.3937 37.3365 24.8577 37.0486C25.3218 36.7607 25.3798 36.6168 25.4959 36.3289C25.6119 36.0411 25.5829 35.4941 25.5829 35.4941C25.5829 35.4941 25.8729 35.379 26.047 34.9472C26.221 34.5154 26.163 34.1411 26.337 33.623C26.5111 33.1048 26.6851 31.6367 26.7721 31.3488C26.8591 31.0609 26.221 31.4352 25.7859 31.867C25.3508 32.2988 25.0898 32.5003 24.7997 32.9321C24.5097 33.3639 24.2776 33.3639 24.1036 33.3063C23.9296 33.2775 23.5815 33.6518 23.6685 33.9972C23.7555 34.3426 23.4655 34.9759 23.3785 35.235C23.2914 35.4941 22.9144 35.5805 22.7403 35.782C22.5663 35.9835 22.1892 36.9335 22.1892 36.9335L22.1312 37.3077Z" fill="#C6C5C3"/>
<path d="M31.732 23.6632C32.2831 23.9222 32.3702 24.1813 32.7182 24.1813C33.0663 24.1813 33.2693 23.8359 33.9655 23.9798C34.6326 24.095 34.9807 23.8071 35.4157 24.354C35.8508 24.901 36.0539 24.9586 35.7638 25.2752C35.4738 25.6207 35.5608 25.5343 35.8508 25.9373C36.1409 26.3691 35.9378 26.657 36.0249 27.2039C36.1119 27.7509 36.0249 28.1827 35.7638 28.5569C35.5028 28.9311 35.3867 29.1039 35.3867 29.1039C35.3867 29.1039 35.2127 28.5857 34.4876 28.1251C33.7624 27.6357 33.6174 27.4054 33.2983 27.2615C32.9793 27.1464 32.7762 27.0024 32.7472 26.5706C32.7182 26.1388 32.6312 25.6494 32.5442 25.3904C32.4862 25.1313 32.3702 24.9873 32.2251 24.8146C32.0511 24.6419 31.9641 24.2677 31.616 24.2101C31.2679 24.1525 30.7168 24.1525 30.6298 23.951C30.5428 23.7495 30.4268 23.6344 30.4268 23.6344C30.4268 23.6344 31.1809 23.4041 31.732 23.6632Z" fill="#C6C5C3"/>
<path d="M34.1975 19.748C34.1975 19.748 34.4006 19.8344 34.6616 19.9495C34.5746 19.9207 34.4586 19.8919 34.3716 19.8632C34.1975 19.8056 34.0525 19.6904 33.9075 19.5753C33.5304 19.2298 33.5304 18.6541 33.6174 17.5026C33.7044 16.3512 35.5608 14.9406 36.2279 14.7679C36.895 14.6239 37.6202 14.9118 37.7072 14.9694L37.7362 15.1133C37.2721 15.1709 36.808 15.4876 36.3729 15.7178C35.8798 15.9769 35.2127 16.7254 34.7196 17.5602C34.1975 18.3375 34.1975 19.748 34.1975 19.748Z" fill="#C6C5C3"/>
<path d="M37.9972 15.0557L38.0552 15.3435C37.7652 15.4587 37.0981 15.9481 37.1851 16.6677C37.2141 16.9268 37.2141 17.1283 37.2431 17.301H37.2141C37.2141 17.301 37.1561 17.5313 36.721 18.1646C36.3149 18.798 35.8218 19.7191 35.3287 19.8919C35.0967 19.9494 34.8936 19.9782 34.6616 19.9206C34.4005 19.8055 34.1975 19.7191 34.1975 19.7191C34.1975 19.7191 34.1975 18.3086 34.7196 17.5025C35.2417 16.6677 35.9088 15.9193 36.3729 15.6602C36.808 15.4299 37.2721 15.142 37.7362 15.0557C37.7942 15.0557 37.8522 15.0557 37.9102 15.0557C37.9392 15.0557 37.9682 15.0557 37.9972 15.0557Z" fill="#C6C5C3"/>
<path d="M34.6616 19.9207C34.8936 20.0359 35.2127 20.151 35.5027 20.295C36.1119 20.5828 37.5911 20.8995 37.6782 20.8995C37.7652 20.8995 39.8246 20.9571 40.3757 20.554C40.7527 20.2662 41.0428 19.9495 41.3038 19.5177C41.3909 19.3738 41.4779 19.2298 41.5649 19.0571C41.5649 19.0571 41.5649 19.0571 41.5649 19.0859C41.5649 19.1723 41.5359 19.4026 41.4489 19.9783C41.2748 21.4177 40.1436 22.1373 39.7666 22.2525C39.3895 22.3676 37.4171 22.7706 35.8508 22.4828C34.2845 22.1949 34.1685 20.2374 34.1685 20.2374L34.3715 19.8344C34.4875 19.8919 34.5746 19.9207 34.6616 19.9207Z" fill="#C6C5C3"/>
<path d="M41.3038 19.5179C41.0428 19.9785 40.7527 20.2663 40.3757 20.5542C39.8246 20.9572 37.7942 20.8996 37.6782 20.8996C37.5911 20.8996 36.1119 20.583 35.5027 20.2951C35.5027 20.2951 36.3149 19.1437 37.4461 18.9997C38.6063 18.827 39.0414 18.5679 39.7956 18.7118C40.5207 18.8846 41.2458 19.4603 41.2458 19.4603L41.3038 19.5179Z" fill="#C6C5C3"/>
<path d="M34.6616 19.9207C34.8646 19.9783 35.0967 19.9495 35.3287 19.892C35.8508 19.748 36.3149 18.7981 36.721 18.1647C37.1271 17.5314 37.2141 17.3011 37.2141 17.3011H37.2431C37.2721 17.6754 37.3301 17.9057 37.6202 18.136C38.0262 18.4526 39.5635 18.0784 39.5635 18.0784C39.5635 18.0784 40.1146 17.7329 40.1726 17.1572C40.2307 16.5815 40.1436 15.8906 39.4765 15.5739C38.8094 15.2573 38.1423 15.3148 38.1423 15.3148C38.1132 15.3148 38.0842 15.3148 38.0552 15.3436L37.9972 15.0558C38.3743 14.9982 38.2003 14.7103 38.4613 14.6815C38.7224 14.6527 39.4765 14.3649 40.1146 14.6815C40.7528 14.9982 41.3039 15.1133 41.5359 16.0057C41.7679 16.8981 42.058 17.9632 41.6519 18.8268C41.6229 18.8844 41.5939 18.9708 41.5649 19.0283C41.4779 19.2011 41.3909 19.345 41.3039 19.4889L41.2458 19.4601C41.2458 19.4601 40.5497 18.8556 39.7956 18.7117C39.0704 18.5678 38.6063 18.8268 37.4461 18.9996C36.2859 19.1435 35.5028 20.295 35.5028 20.295C35.2127 20.1798 34.9226 20.0359 34.6616 19.9207Z" fill="#C6C5C3"/>
<path d="M39.4765 15.5737C40.1437 15.8904 40.2307 16.5813 40.1727 17.157C40.1146 17.7327 39.5635 18.0782 39.5635 18.0782C39.5635 18.0782 38.0262 18.4524 37.6202 18.1358C37.3301 17.9055 37.2721 17.7039 37.2431 17.3009C37.2141 17.1282 37.2141 16.9267 37.1851 16.6676C37.0981 15.948 37.7942 15.4586 38.0553 15.3434C38.0843 15.3146 38.1133 15.3146 38.1423 15.3146C38.1423 15.3146 38.8094 15.2571 39.4765 15.5737Z" fill="#C6C5C3"/>
<path d="M34.6616 19.9207C34.4005 19.8056 34.1975 19.7192 34.1975 19.7192C34.1975 19.7192 34.1975 18.3087 34.7196 17.5026C35.2417 16.6678 35.9088 15.9194 36.3729 15.6603C36.808 15.43 37.2721 15.1421 37.7362 15.0558C37.7942 15.0558 37.8522 15.0558 37.9102 15.0558C37.9392 15.0558 37.9682 15.0558 37.9972 15.0558C38.3743 14.9982 38.2003 14.7103 38.4613 14.6815C38.7224 14.6527 39.4765 14.3649 40.1146 14.6815C40.7528 14.9982 41.3039 15.1133 41.5359 16.0057C41.768 16.8981 42.058 17.9632 41.6519 18.8268C41.6229 18.8844 41.5939 18.9708 41.5649 19.0283C41.4779 19.2011 41.3909 19.345 41.3039 19.4889C41.0428 19.9495 40.7528 20.2374 40.3757 20.5253C39.8246 20.9283 37.7942 20.8707 37.6782 20.8707C37.5912 20.8707 36.1119 20.554 35.5028 20.2662C35.2127 20.1798 34.9226 20.0359 34.6616 19.9207Z" stroke="white" stroke-width="0.2" stroke-miterlimit="10"/>
<path d="M37.2431 17.3297C37.2721 17.704 37.3301 17.9343 37.6202 18.1646C38.0262 18.4812 39.5635 18.107 39.5635 18.107C39.5635 18.107 40.1146 17.7615 40.1726 17.1858C40.2307 16.6101 40.1436 15.9192 39.4765 15.6025C38.8094 15.2859 38.1423 15.3434 38.1423 15.3434C38.1132 15.3434 38.0842 15.3435 38.0552 15.3722C37.7652 15.4874 37.0981 15.9768 37.1851 16.6964C37.2141 16.9267 37.2141 17.157 37.2431 17.3297Z" stroke="white" stroke-width="0.2" stroke-miterlimit="10"/>
<path d="M37.7362 14.9405C37.6492 14.9117 36.924 14.5951 36.2569 14.739C35.5898 14.8829 33.7334 16.3223 33.6464 17.4737C33.5594 18.6252 33.5594 19.1722 33.9365 19.5464C34.0815 19.6615 34.2265 19.7767 34.4005 19.8343C34.4876 19.8631 34.5746 19.8918 34.6906 19.9206C34.8936 19.9782 35.1257 19.9494 35.3577 19.8918C35.8798 19.7479 36.3439 18.7979 36.75 18.1646C37.1561 17.5313 37.2431 17.301 37.2431 17.301" stroke="white" stroke-width="0.2" stroke-miterlimit="10"/>
<path d="M35.5027 20.2951C35.5027 20.2951 36.3149 19.1437 37.4461 18.9997C38.6063 18.827 39.0414 18.5679 39.7956 18.7118C40.5207 18.8846 41.2458 19.4603 41.2458 19.4603" stroke="white" stroke-width="0.2" stroke-miterlimit="10"/>
<path d="M41.5649 19.0859C41.5649 19.1147 41.5649 19.2011 41.5649 19.2011" stroke="white" stroke-miterlimit="10"/>
<path d="M34.1685 20.2662C34.1685 20.2662 34.2845 22.2237 35.8508 22.5116C37.4171 22.7994 39.3605 22.4252 39.7666 22.2813C40.1436 22.1661 41.3038 21.4177 41.4489 20.0071C41.5069 19.4314 41.5359 19.1723 41.5649 19.1147V19.0859" stroke="white" stroke-width="0.2" stroke-miterlimit="10"/>
<path d="M16.5041 16.4948C16.2431 16.4948 15.721 16.4948 15.1409 16.4948H7.13533C7.13533 16.4948 6.9903 30.7443 6.93229 36.2714C7.04831 37.941 9.02069 38.3728 9.02069 38.3728L0.0579834 38.344C0.261022 38.3152 1.13119 38.2289 1.45025 38.1713C2.20439 37.9698 2.63948 37.0486 2.69749 36.185C2.7555 30.1398 3.10356 2.47563 3.10356 1.38173C3.10356 0.143894 0.174006 0.115107 0.0579834 0.115107C0.0579834 0.115107 12.9074 0.08632 18.0994 0.143894C23.2914 0.201467 24.9447 1.0075 26.1049 2.61956C27.2942 4.31799 27.3812 5.78611 27.0911 9.49962C26.8301 13.1268 25.1768 14.2782 23.5525 15.257C22.3922 15.9479 20.8839 16.2645 18.7665 16.466C18.5635 16.466 17.5773 16.4948 16.5041 16.4948ZM18.1284 15.0843C18.1284 15.0843 22.8273 13.4146 22.7113 7.74362C22.6243 2.07261 19.8688 1.35294 19.8688 1.35294H6.87428C6.87428 1.35294 6.78726 12.5798 6.81627 15.2282C7.54141 15.257 18.1284 15.0843 18.1284 15.0843Z" fill="#C6C5C3"/>
</g>
<defs>
<clipPath id="clip0_4670_8451">
<rect width="42" height="42" fill="white"/>
</clipPath>
</defs>
</svg>
